<?xml version="1.0"?>
<svg xmlns="http://www.w3.org/2000/svg" viewBox="0 0 24 24">
    <path d="M 18 2 C 15.790861 2 14 2.6715729 14 3.5 C 14 4.3284271 15.790861 5 18 5 C 20.209139 5 22 4.3284271 22 3.5 C 22 2.6715729 20.209139 2 18 2 z M 14 4 L 14 6.34375 C 14 7.26475 15.791 8 18 8 C 20.209 8 22 7.26475 22 6.34375 L 22 4 C 22 4.92 20.209 5.65625 18 5.65625 C 15.791 5.65625 14 4.921 14 4 z M 6 5 C 3.790861 5 2 5.6715729 2 6.5 C 2 7.3284271 3.790861 8 6 8 C 8.209139 8 10 7.3284271 10 6.5 C 10 5.6715729 8.209139 5 6 5 z M 2 7 L 2 9.34375 C 2 10.26475 3.791 11 6 11 C 6.386 11 6.74075 10.9795 7.09375 10.9375 C 7.43275 10.0245 8.597 9.4535 10 9.1875 L 10 7 C 10 7.92 8.209 8.65625 6 8.65625 C 3.791 8.65625 2 7.92 2 7 z M 14 7 L 14 9.1875 C 15.403 9.4535 16.56725 10.0245 16.90625 10.9375 C 17.25925 10.9795 17.614 11 18 11 C 20.209 11 22 10.26475 22 9.34375 L 22 7 C 22 7.92 20.209 8.65625 18 8.65625 C 15.791 8.65625 14 7.921 14 7 z M 2 10 L 2 12.34375 C 2 13.26475 3.791 14 6 14 C 6.347 14 6.679 13.9725 7 13.9375 L 7 11.59375 C 6.679 11.62875 6.347 11.65625 6 11.65625 C 3.791 11.65625 2 10.921 2 10 z M 12 10 C 9.790861 10 8 10.671573 8 11.5 C 8 12.328427 9.790861 13 12 13 C 14.209139 13 16 12.328427 16 11.5 C 16 10.671573 14.209139 10 12 10 z M 22 10 C 22 10.92 20.209 11.65625 18 11.65625 C 17.653 11.65625 17.321 11.62875 17 11.59375 L 17 13.9375 C 17.321 13.9725 17.653 14 18 14 C 20.209 14 22 13.26475 22 12.34375 L 22 10 z M 8 12 L 8 14.34375 C 8 15.26475 9.791 16 12 16 C 14.209 16 16 15.26475 16 14.34375 L 16 12 C 16 12.92 14.209 13.65625 12 13.65625 C 9.791 13.65625 8 12.921 8 12 z M 2 13 L 2 15.34375 C 2 16.26475 3.791 17 6 17 C 6.347 17 6.679 16.9725 7 16.9375 L 7 14.59375 C 6.679 14.62875 6.347 14.65625 6 14.65625 C 3.791 14.65625 2 13.921 2 13 z M 22 13 C 22 13.92 20.209 14.65625 18 14.65625 C 17.653 14.65625 17.321 14.62875 17 14.59375 L 17 16.9375 C 17.321 16.9725 17.653 17 18 17 C 20.209 17 22 16.26475 22 15.34375 L 22 13 z M 8 15 L 8 17.34375 C 8 18.26475 9.791 19 12 19 C 14.209 19 16 18.26475 16 17.34375 L 16 15 C 16 15.92 14.209 16.65625 12 16.65625 C 9.791 16.65625 8 15.921 8 15 z M 2 16 L 2 18.34375 C 2 19.26475 3.791 20 6 20 C 6.347 20 6.679 19.9725 7 19.9375 L 7 17.59375 C 6.679 17.62875 6.347 17.65625 6 17.65625 C 3.791 17.65625 2 16.921 2 16 z M 22 16 C 22 16.92 20.209 17.65625 18 17.65625 C 17.653 17.65625 17.321 17.62875 17 17.59375 L 17 19.9375 C 17.321 19.9725 17.653 20 18 20 C 20.209 20 22 19.26475 22 18.34375 L 22 16 z M 8 18 L 8 20.34375 C 8 21.26475 9.791 22 12 22 C 14.209 22 16 21.26475 16 20.34375 L 16 18 C 16 18.92 14.209 19.65625 12 19.65625 C 9.791 19.65625 8 18.921 8 18 z"/>
</svg>
